<!DOCTYPE svg PUBLIC "-//W3C//DTD SVG 1.1//EN" "http://www.w3.org/Graphics/SVG/1.1/DTD/svg11.dtd">

<!-- Uploaded to: SVG Repo, www.svgrepo.com, Transformed by: SVG Repo Mixer Tools -->
<svg width="90px" height="90px" viewBox="0 0 24 24" id="up-alt-circle" data-name="Multi Color" xmlns="http://www.w3.org/2000/svg" class="icon multi-color" fill="#000000">

<g id="SVGRepo_bgCarrier" stroke-width="0"/>

<g id="SVGRepo_tracerCarrier" stroke-linecap="round" stroke-linejoin="round"/>

<g id="SVGRepo_iconCarrier">

<title style="stroke-width: 2;">up alt circle</title>

<path id="tertiary-fill" d="M21,12A9,9,0,0,1,3,12a9.36,9.36,0,0,1,.22-2,9,9,0,0,0,17.56,0A9.36,9.36,0,0,1,21,12Z" style="fill: #7dc4e8; stroke-width: 2;"/>

<path id="secondary-fill" d="M15,12h-.59v4a1,1,0,0,1-1,1h-2a1,1,0,0,1-1-1V12H9.82a1,1,0,0,1-.7-1.71L11.7,7.71a1,1,0,0,1,1.42,0l2.58,2.58A1,1,0,0,1,15,12Z" style="fill: #2cba77; stroke-width: 2;"/>

<path id="primary-stroke" d="M21,12a9,9,0,1,1-9-9A9,9,0,0,1,21,12Zm-5.71-1.71L12.71,7.71a1,1,0,0,0-1.42,0L8.71,10.29A1,1,0,0,0,9.41,12H10v4a1,1,0,0,0,1,1h2a1,1,0,0,0,1-1V12h.59A1,1,0,0,0,15.29,10.29Z" style="fill: none; stroke: #000000; stroke-linecap: round; stroke-linejoin: round; stroke-width: 2;"/>

</g>

</svg>